#!OML:ASF E:/inclinewalkrobotboard/Project1/Captureday1/Session1/subject1.ASF
:FULLY-SPECIFIED
:DEGREES
1
root 0 0 0 2.202035144135314 -3.990748826156923 2.440805503095012
lowerback 11.969359622937517 1.057209861191129 -0.45626256894431216
upperback -4.1080472402676405 1.3062912699291849 -0.7767956760134288
thorax -11.11185761826818 0.609040994326974 -0.8472071471784357
lowerneck -7.0323849816584 1.4166490592467376 4.238889537722931
upperneck 18.54711376573218 2.8721196632544874 -7.967210338386462
head 6.955294246071604 1.0077330285242572 -3.0744587734792477
rclavicle -1.614911152607061E-15 -1.3715984173240354E-15
rhumerus 16.80365594863291 12.6379266758274 -51.161943390828235
rradius 68.39697438985921
rwrist 24.05958662670178
rhand -32.863713289673775 -48.78962945652391
rfingers 7.125019999999961
rthumb -6.128503903216348 -78.85168218619717
lclavicle 7.288530834331E-17 2.4897690508899073E-16
lhumerus 17.491011396796274 -13.48434705678295 49.533219258488074
lradius 66.98405608852505
lwrist -18.206201075327186
lhand -43.872986692485995 -60.210669019644435
lfingers 7.125019999999955
lthumb -16.71208535741679 -30.771715479224195
rfemur -32.21969745153287 -1.190737481135582 16.03285426744488
rtibia 52.29233011132975
rfoot -19.23186912846659 -15.744057493420478
rtoes -13.415547691465457
lfemur -21.84442909860153 2.8823901910132017 -15.74133786897652
ltibia 49.75609556635189
lfoot -22.221374434116235 0.9411042861090415
ltoes -16.58970247906207
2
root 0 0 0 2.368351765172619 -4.062153820802439 2.4691732994369873
lowerback 12.013534454991191 1.05900167897659 -0.4416023746080564
upperback -4.135316411205426 1.313467389968857 -0.7894554809567594
thorax -11.16142964789166 0.6100680589228886 -0.8730140280699155
lowerneck -7.0086047537113965 1.40879367541853 4.275199839181175
upperneck 18.739502226420512 2.8699601400977697 -8.058576725673369
head 7.016427080227207 1.0016185720030393 -3.113889123576781
rclavicle -1.3714673784560728E-15 -1.464887422436274E-15
rhumerus 17.245897551702846 13.086768421849731 -51.21899217087099
rradius 68.75358055631773
rwrist 23.946057868295405
rhand -32.94264536321779 -49.083222416570145
rfingers 7.125019999999963
rthumb -6.2083378443862625 -79.15272638724653
lclavicle 4.619914791127821E-16 2.7782702278425524E-16
lhumerus 17.765877611215956 -13.59391894028264 49.40049307125423
lradius 67.19518465768239
lwrist -18.27098981950126
lhand -43.974093018202794 -60.58223355511151
lfingers 7.125019999999957
lthumb -16.808646990098232 -31.144785324821147
rfemur -31.54613240735288 -0.9533366370453202 16.374872942427857
rtibia 50.34272278391547
rfoot -21.228984454807346 -16.180640041008512
rtoes -14.744617274241556
lfemur -22.062959155668167 2.5378311594183787 -16.000307566160707
ltibia 45.87961618067029
lfoot -25.045105073283125 2.8109687921904474
ltoes -17.232465011857236
3
root 0 0 0 2.481681837633108 -4.099990594949954 2.4750979883833213
lowerback 12.008505875385975 1.0657800863886342 -0.42774748800708273
upperback -4.153174557804106 1.3252351499444934 -0.7985076005888568
thorax -11.172776910163845 0.6141363804733087 -0.8935812583812512
lowerneck -6.993386747945554 1.393808729071471 4.285969725789338
upperneck 18.854175038203937 2.8521203129774193 -8.089420256417279
head 7.052960859545431 0.9916689775376729 -3.1290416618837416
rclavicle -1.2803887205324757E-15 -1.3645265655927628E-15
rhumerus 17.446792740985757 13.329088761790276 -51.32156787603314
rradius 68.91538805189752
rwrist 23.820691566911474
rhand -32.96177970172329 -49.13367318543604
rfingers 7.125019999999963
rthumb -6.228104447056955 -79.20113111836426
lclavicle 6.541658410443516E-16 4.183338360122421E-16
lhumerus 17.83711695872013 -13.656552216493973 49.38997369291084
lradius 67.25925789017919
lwrist -18.256863915767934
lhand -43.99257045684453 -60.610782943067846
lfingers 7.125019999999957
lthumb -16.82555851769461 -31.172164415793862
rfemur -30.504463658575414 -0.6192529605042401 16.819895275515464
rtibia 48.17856146926969
rfoot -22.779227465617716 -16.386583448851567
rtoes -15.954994322909558
lfemur -21.86090566577798 2.0439416376267263 -16.20290999942085
ltibia 41.800708466747594
lfoot -27.16167059958465 4.3161784839414405
ltoes -17.957987373625457
4
root 0 0 0 2.5845368518435183 -4.115265507394375 2.484155326820061
lowerback 11.9702706990533 1.071775814678515 -0.4255623873232415
upperback -4.1714160939179905 1.3332791311026329 -0.808948924602665
thorax -11.16467050934251 0.6167902645697538 -0.9075707629865803
lowerneck -6.976090124262703 1.3715696423973027 4.287370654084846
upperneck 18.97852905451811 2.822103456153628 -8.101024860309385
head 7.092620536703327 0.9769460294143185 -3.1371579716693363
rclavicle -1.0987191389536344E-15 -1.1615502265653245E-15
rhumerus 17.486407645649933 13.392575357895824 -51.37180957228252
rradius 68.9478299163799
rwrist 23.766749780372493
rhand -32.958369963691666 -49.1118790527731
rfingers 7.125019999999963
rthumb -6.22496186289113 -79.17757674432534
lclavicle 8.888834398170132E-16 6.250293554299677E-16
lhumerus 17.79399106014197 -13.626962288825636 49.40295095511217
lradius 67.21892855094694
lwrist -18.25326015725817
lhand -43.976801923064016 -60.56094239934215
lfingers 7.125019999999957
lthumb -16.809536283949473 -31.11737455522596
rfemur -29.225496861539767 -0.19472998084444448 17.231042274031136
rtibia 45.674951698746256
rfoot -23.616070518507236 -16.304909137129
rtoes -17.29541818603517
lfemur -20.89254418216889 1.2930471364545415 -16.352163540348972
ltibia 37.261726096132506
lfoot -28.01177425149133 5.152038881833033
ltoes -18.834621991568113
5
root 0 0 0 2.6013961871583486 -4.0965633537050135 2.514474443292563
lowerback 11.94594185064124 1.0646966219003875 -0.45324673027644646
upperback -4.178709315481481 1.3198599298348785 -0.8152624095387838
thorax -11.157134303133462 0.610476786972757 -0.8962764607367777
lowerneck -6.965140121247215 1.3613972793288485 4.287378950426706
upperneck 19.0651958259628 2.808450528942874 -8.109229980445365
head 7.120432908829491 0.9695925829766511 -3.1419214334246997
rclavicle -1.0034326173879697E-15 -1.0902327421965235E-15
rhumerus 17.37269717470498 13.249068521630251 -51.298737445654226
rradius 68.85562280005513
rwrist 23.85162351850054
rhand -32.95003131720881 -49.098619347006
rfingers 7.125019999999963
rthumb -6.21621855015063 -79.16906643210632
lclavicle 9.545385379499398E-16 6.468526569100968E-16
lhumerus 17.730044290393735 -13.542343670945572 49.39247876894835
lradius 67.15072577906318
lwrist -18.28783642420681
lhand -43.96359195019155 -60.57615578802266
lfingers 7.125019999999956
lthumb -16.797061064568894 -31.130377247034158
rfemur -28.97559465736105 -0.1133067132564527 17.12737980323616
rtibia 45.33867178690631
rfoot -22.906182320991316 -16.053707539611523
rtoes -17.637885572016245
lfemur -19.960990137606096 0.9743721864062157 -16.41239085666361
ltibia 35.95641819835426
lfoot -27.398518775967297 4.843852699698476
ltoes -19.249919226804707
6
root 0 0 0 2.5668374042357214 -4.053286389996826 2.577454453555939
lowerback 11.939475365774188 1.041991030066219 -0.5154557767078255
upperback -4.180009331231491 1.281502250167376 -0.8198557420299187
thorax -11.156796658845641 0.5931112569472329 -0.8601166091252932
lowerneck -6.957053493337448 1.3583381128453966 4.289643031478585
upperneck 19.16449603952303 2.8056623344873675 -8.12897977721287
head 7.152862987841075 0.9661572129362085 -3.14996862503763
rclavicle -8.496890522718573E-16 -1.1011173425324369E-15
rhumerus 17.17475423742477 12.989503734839024 -51.153820170438784
rradius 68.69648025157757
rwrist 24.0164573932231
rhand -32.93988153515404 -49.09697690263001
rfingers 7.125019999999963
rthumb -6.20547889265066 -79.17488969986007
lclavicle 1.016773474727583E-15 6.089457649876978E-16
lhumerus 17.65236114302717 -13.416359276267885 49.36446383184299
lradius 67.06030092218928
lwrist -18.349302109804327
lhand -43.95271635856443 -60.637724834037876
lfingers 7.125019999999956
lthumb -16.787042900768984 -31.18969384271553
rfemur -29.400410705434368 -0.27728331390970595 16.668911246166523
rtibia 46.52574987175282
rfoot -21.239825491217093 -15.702962881998346
rtoes -17.40554848397045
lfemur -18.961118651111118 0.8780579633806643 -16.456390482162153
ltibia 36.27675209874185
lfoot -26.22041320709757 3.995637190168135
ltoes -19.554699113767533
7
root 0 0 0 2.477239475402538 -3.981663964895451 2.6800563262606922
lowerback 11.956677064331334 1.0002728965182672 -0.6197197296789546
upperback -4.173466486362407 1.21295385508538 -0.822074032354689
thorax -11.16561241181735 0.5623492409585135 -0.7933966009440911
lowerneck -6.955901539295838 1.364850645554237 4.293925035239437
upperneck 19.265940125686665 2.8175465682557377 -8.160058436161618
head 7.1870758869905025 0.968351973019765 -3.160877553598479
rclavicle -6.831320611283668E-16 -1.190697484955547E-15
rhumerus 16.93253677985595 12.665270661185522 -50.96332402766086
rradius 68.5020804332856
rwrist 24.230843905427975
rhand -32.93060574532974 -49.10924383990801
rfingers 7.125019999999963
rthumb -6.195595018796093 -79.19746149425946
lclavicle 1.051866825612269E-15 5.045770012358337E-16
lhumerus 17.59180551405288 -13.289236359982764 49.32350745785962
lradius 66.9803762417948
lwrist -18.421831226796222
lhand -43.950283875766964 -60.738123875413365
lfingers 7.125019999999956
lthumb -16.78535326731692 -31.28923946983964
rfemur -30.433832299856192 -0.649956158056944 15.969332400359967
rtibia 48.93404433556589
rfoot -18.994601607538932 -15.316565232535313
rtoes -16.624138050226097
lfemur -17.92387039383119 1.0560502004200205 -16.547797686270535
ltibia 38.33088629719251
lfoot -24.77097359317483 2.7021536469166563
ltoes -19.763118568094043
8
root 0 0 0 2.3357443526200714 -3.877534433859302 2.8183789490564806
lowerback 11.999674090434565 0.9369625528110133 -0.7650894664820186
upperback -4.156836866254077 1.1111230217867143 -0.8189465724960737
thorax -11.182479092386608 0.5166869761372667 -0.6930796515757132
lowerneck -6.969574104974765 1.381391645920887 4.2984687711317475
upperneck 19.35603188147729 2.8447911034855595 -8.198741492432694
head 7.219806212809395 0.9767035376967822 -3.173093996537596
rclavicle -5.328024464958305E-16 -1.337215440206256E-15
rhumerus 16.68439623936103 12.329480443549551 -50.76098422566672
rradius 68.30304342603948
rwrist 24.45756112757377
rhand -32.922803543332165 -49.129738040480674
rfingers 7.125019999999963
rthumb -6.187256788816992 -79.22937152948168
lclavicle 1.052623297613389E-15 3.643474796060365E-16
lhumerus 17.56660405636604 -13.200231494528705 49.28264359769419
lradius 66.9352133575974
lwrist -18.482540745013928
lhand -43.95670354828992 -60.84472290408468
lfingers 7.125019999999956
lthumb -16.792228906242816 -31.396787251266648
rfemur -31.795325214218792 -1.0971209275121478 15.265807402850177
rtibia 51.68060876514309
rfoot -16.79072858821145 -14.96336645113346
rtoes -15.463313156326638
lfemur -16.932188118647293 1.5151345585109648 -16.694619504256163
ltibia 42.09059689353214
lfoot -23.162325736670184 1.0342914669188437
ltoes -19.825650876466547
